<svg width="16" height="16" viewBox="0 0 16 16" fill="none" xmlns="http://www.w3.org/2000/svg">
<g clip-path="url(#clip0)">
<path d="M13.2294 2.79272H13.9501C14.1625 2.79272 14.3345 2.96484 14.3345 3.17711V4.4097H12.845V3.17654C12.8453 2.9645 13.0173 2.79272 13.2294 2.79272Z" fill="#575B6D"/>
<path d="M10.2207 2.29639H5.77935C5.56618 2.29635 5.37041 2.41394 5.27029 2.60213L4.30835 4.40974H11.6918L10.7296 2.60135C10.6293 2.41356 10.4336 2.29631 10.2207 2.29639Z" fill="#DBD8DD"/>
<path d="M0.960968 3.85376H15.039C15.5698 3.85376 16 4.284 16 4.81473V12.7425C16 13.2733 15.5698 13.7035 15.039 13.7035H0.960968C0.430238 13.7035 0 13.2733 0 12.7426V4.81473C0 4.284 0.430238 3.85376 0.960968 3.85376Z" fill="#DBD8DD"/>
<path d="M0 6.16821H16V11.3895H0V6.16821Z" fill="#575B6D"/>
<path d="M8.00006 12.6986C10.165 12.6986 11.92 10.9436 11.92 8.77863C11.92 6.61368 10.165 4.85864 8.00006 4.85864C5.83512 4.85864 4.08008 6.61368 4.08008 8.77863C4.08008 10.9436 5.83512 12.6986 8.00006 12.6986Z" fill="#686D82"/>
<path d="M10.9588 8.77896C10.962 10.417 9.63669 11.7474 7.99868 11.7505C6.36068 11.7537 5.03026 10.4284 5.02711 8.79044C5.02392 7.15243 6.3492 5.822 7.98721 5.81885C8.58986 5.81769 9.17852 6.00011 9.6749 6.3419C10.4776 6.8937 10.9576 7.80491 10.9588 8.77896Z" fill="#419BE9"/>
<path d="M10.1921 8.01211C10.1944 9.64439 8.8731 10.9695 7.24082 10.9719C6.6399 10.9727 6.05296 10.7904 5.5583 10.4492C4.63381 9.10301 4.97563 7.26229 6.32181 6.3378C7.33224 5.64389 8.66608 5.64531 9.67501 6.34148C10.0121 6.83336 10.1924 7.4158 10.1921 8.01211Z" fill="#69B0EE"/>
<path d="M7.61652 7.82191C7.9438 7.82191 8.20912 7.5566 8.20912 7.22932C8.20912 6.90203 7.9438 6.63672 7.61652 6.63672C7.28924 6.63672 7.02393 6.90203 7.02393 7.22932C7.02393 7.5566 7.28924 7.82191 7.61652 7.82191Z" fill="#EEEFEE"/>
<path d="M6.63872 8.65976C6.78463 8.65976 6.90292 8.54147 6.90292 8.39555C6.90292 8.24964 6.78463 8.13135 6.63872 8.13135C6.4928 8.13135 6.37451 8.24964 6.37451 8.39555C6.37451 8.54147 6.4928 8.65976 6.63872 8.65976Z" fill="#EEEFEE"/>
<path d="M2.04648 5.64104C2.32429 5.64104 2.5495 5.41583 2.5495 5.13803C2.5495 4.86022 2.32429 4.63501 2.04648 4.63501C1.76867 4.63501 1.54346 4.86022 1.54346 5.13803C1.54346 5.41583 1.76867 5.64104 2.04648 5.64104Z" fill="#EF5261"/>
<path d="M12.2248 9.08333C12.2259 9.91242 11.9627 10.7203 11.4736 11.3897H10.9233C12.2528 9.90304 12.2528 7.65485 10.9233 6.16821C11.7527 6.91012 12.2261 7.97057 12.2248 9.08333Z" fill="#464956"/>
<path d="M11.4731 11.3897C10.2004 13.1397 7.74998 13.5267 5.99993 12.254C5.77364 12.0894 5.5656 11.901 5.37939 11.6921C6.9858 13.1398 9.46163 13.0111 10.9093 11.4047C10.9138 11.3997 10.9183 11.3947 10.9228 11.3896H11.4731V11.3897Z" fill="#BBBBCD"/>
</g>
<defs>
<clipPath id="clip0">
<rect width="16" height="16" fill="white"/>
</clipPath>
</defs>
</svg>
