<svg width="101" height="40" viewBox="0 0 101 40" fill="none" xmlns="http://www.w3.org/2000/svg">
<rect width="100.19" height="38.7097" rx="19.3548" fill="white"/>
<path d="M16.9827 21.2681L18.9135 15.9688L20.6373 21.2681H16.9827ZM24.8895 27.0169L18.9135 9.10815L12.5237 27.0169H14.9141L16.1093 23.6812H21.3039L22.4991 27.0169H24.8895Z" fill="#D81D99"/>
<path d="M26.0914 27.0169H28.3209V10.1491H26.0914V27.0169Z" fill="#D81D99"/>
<path d="M32.632 15.8979H30.4255V22.0252C30.4255 25.5502 31.9884 27.3008 35.2063 27.3008C36.9532 27.3008 38.2173 26.7803 39.1367 25.5502C39.9412 24.4856 39.9872 23.3973 39.9872 22.0252V15.8979H37.7806V21.9779C37.7806 24.0124 36.8612 25.077 35.1833 25.077C33.5284 25.077 32.632 24.0124 32.632 21.9779V15.8979Z" fill="#D81D99"/>
<path d="M42.1989 27.0169H44.3825V20.5584C44.3825 18.9024 45.3479 18.0271 47.1177 18.0271C47.2096 18.0271 47.3016 18.0271 47.3935 18.0271V15.7559C47.2786 15.7559 47.1637 15.7559 47.0717 15.7559C44.1297 15.7559 42.1989 17.6249 42.1989 20.5821V27.0169Z" fill="#D81D99"/>
<path d="M53.7242 17.7905C55.6549 17.7905 57.149 19.3519 57.149 21.4811C57.149 23.6339 55.7239 25.077 53.6093 25.077C51.5866 25.077 50.1616 23.6339 50.1616 21.5993C50.1616 19.3282 51.7475 17.7905 53.7242 17.7905ZM58.4361 24.4383L59.2866 27.0406H61.585L59.4934 20.6057C59.0797 19.3046 58.689 18.1453 57.7696 17.199C56.7123 16.1344 55.4021 15.5903 53.7932 15.5903C50.3914 15.5903 47.909 18.1927 47.909 21.4574C47.909 24.8641 50.2535 27.3245 53.6093 27.3245C55.7469 27.3245 57.4248 26.3309 58.4361 24.4383Z" fill="#D81D99"/>
<path d="M62.3233 27.0169H64.5068V21.8596C67.219 21.9069 68.5981 23.4446 68.5981 26.4965C68.5981 26.6621 68.5751 26.8277 68.5751 27.0169H70.7817C70.7817 26.875 70.7817 26.7567 70.7817 26.6147C70.7817 23.2554 69.6324 21.2208 67.288 20.4401L70.7817 15.8979H68.1154L64.5068 20.653V10.1491H62.3233V27.0169Z" fill="#D81D99"/>
<path d="M74.2499 15.8979H72.0433V22.0252C72.0433 25.5502 73.6063 27.3008 76.8242 27.3008C78.571 27.3008 79.8352 26.7803 80.7546 25.5502C81.5591 24.4856 81.605 23.3973 81.605 22.0252V15.8979H79.3985V21.9779C79.3985 24.0124 78.4791 25.077 76.8012 25.077C75.1463 25.077 74.2499 24.0124 74.2499 21.9779V15.8979Z" fill="#D81D99"/>
<path d="M82.9664 17.8615H84.0696V22.0252C84.0696 25.1953 85.7475 26.9696 88.8045 27.0169V24.7458C86.9198 24.5565 86.2302 23.5393 86.2302 21.3628V17.8615H88.6666V15.8979H86.2302V13.2719H84.0696V15.8979H82.9664V17.8615Z" fill="#D81D99"/>
</svg>
