<svg width="16" height="16" viewBox="0 0 16 16" fill="none" xmlns="http://www.w3.org/2000/svg">
<path fill-rule="evenodd" clip-rule="evenodd" d="M14.8966 3.03442H15.4483C15.7526 3.03533 15.9991 3.28182 16 3.58615V14.0689C15.9991 14.3732 15.7526 14.6197 15.4483 14.6206H9.37931C9.37931 15.3824 8.76177 15.9999 8 15.9999C7.23823 15.9999 6.62069 15.3824 6.62069 14.6206H0.551724C0.247393 14.6197 0.00090891 14.3732 0 14.0689V3.58615C0.00090891 3.28182 0.247393 3.03533 0.551724 3.03442H14.8966Z" fill="#CB8252"/>
<path fill-rule="evenodd" clip-rule="evenodd" d="M7.44834 3.0346V2.75874C7.44834 2.30168 7.07782 1.93115 6.62076 1.93115H1.37938C1.22702 1.93115 1.10352 2.05466 1.10352 2.20701V13.2415C1.10352 13.3939 1.22702 13.5174 1.37938 13.5174H7.17248C7.32484 13.5174 7.44834 13.3939 7.44834 13.2415V3.0346Z" fill="#ECF0F1"/>
<path fill-rule="evenodd" clip-rule="evenodd" d="M10.4828 1.93115H9.37934C8.92228 1.93115 8.55176 2.30168 8.55176 2.75874V13.2415C8.55176 13.3939 8.67527 13.5174 8.82762 13.5174H14.6207C14.7731 13.5174 14.8966 13.3939 14.8966 13.2415V2.20701C14.8966 2.05466 14.7731 1.93115 14.6207 1.93115H10.4828Z" fill="#ECF0F1"/>
<path d="M8.82749 3.03442H7.17233C6.86762 3.03442 6.62061 3.28144 6.62061 3.58615C6.62061 3.89085 6.86762 4.13787 7.17233 4.13787H8.82749C9.1322 4.13787 9.37921 3.89085 9.37921 3.58615C9.37921 3.28144 9.1322 3.03442 8.82749 3.03442Z" fill="#95A5A5"/>
<path d="M8.82749 5.79321H7.17233C6.86762 5.79321 6.62061 6.04023 6.62061 6.34494C6.62061 6.64964 6.86762 6.89666 7.17233 6.89666H8.82749C9.1322 6.89666 9.37921 6.64964 9.37921 6.34494C9.37921 6.04023 9.1322 5.79321 8.82749 5.79321Z" fill="#95A5A5"/>
<path d="M8.82749 8.55176H7.17233C6.86762 8.55176 6.62061 8.79878 6.62061 9.10349C6.62061 9.4082 6.86762 9.65522 7.17233 9.65522H8.82749C9.1322 9.65522 9.37921 9.4082 9.37921 9.10349C9.37921 8.79878 9.1322 8.55176 8.82749 8.55176Z" fill="#95A5A5"/>
<path d="M8.82749 11.3103H7.17233C6.86762 11.3103 6.62061 11.5573 6.62061 11.862C6.62061 12.1667 6.86762 12.4138 7.17233 12.4138H8.82749C9.1322 12.4138 9.37921 12.1667 9.37921 11.862C9.37921 11.5573 9.1322 11.3103 8.82749 11.3103Z" fill="#95A5A5"/>
<path d="M13.5174 1.37939H10.7588C10.6064 1.37939 10.4829 1.5029 10.4829 1.65526V2.7587C10.4829 2.91106 10.6064 3.03457 10.7588 3.03457H13.5174C13.6697 3.03457 13.7933 2.91106 13.7933 2.7587V1.65526C13.7933 1.5029 13.6697 1.37939 13.5174 1.37939Z" fill="#95A5A5"/>
<path fill-rule="evenodd" clip-rule="evenodd" d="M11.5861 0H12.6896C12.9943 0 13.2413 0.247015 13.2413 0.551724V1.37931H11.0344V0.551724C11.0344 0.247015 11.2814 0 11.5861 0Z" fill="#FB7B76"/>
<path fill-rule="evenodd" clip-rule="evenodd" d="M12.8469 10.2068L12.3834 11.1585C12.3362 11.2506 12.2414 11.3086 12.1379 11.3086C12.0344 11.3086 11.9396 11.2506 11.8924 11.1585L11.429 10.2068H12.8469Z" fill="#35495E"/>
<path fill-rule="evenodd" clip-rule="evenodd" d="M13.5172 8.82764L12.8468 10.2069H11.4289L10.7585 8.82764H13.5172Z" fill="#FAC176"/>
<path fill-rule="evenodd" clip-rule="evenodd" d="M10.7585 3.03442H13.5172V8.82753H10.7585V3.03442Z" fill="#F0C419"/>
<path fill-rule="evenodd" clip-rule="evenodd" d="M12.4138 3.03442V4.13787C12.4138 4.29022 12.2903 4.41373 12.1379 4.41373C11.9856 4.41373 11.8621 4.29022 11.8621 4.13787V3.03442H12.4138Z" fill="#F29C1F"/>
<path fill-rule="evenodd" clip-rule="evenodd" d="M12.4138 5.24144V8.82764H11.8621V5.24144C11.8621 5.08908 11.9856 4.96558 12.1379 4.96558C12.2903 4.96558 12.4138 5.08908 12.4138 5.24144Z" fill="#F29C1F"/>
<path fill-rule="evenodd" clip-rule="evenodd" d="M5.24127 3.86203H2.48265C2.33029 3.86203 2.20679 3.73852 2.20679 3.58616C2.20679 3.43381 2.33029 3.3103 2.48265 3.3103H5.24127C5.39362 3.3103 5.51713 3.43381 5.51713 3.58616C5.51713 3.73852 5.39362 3.86203 5.24127 3.86203Z" fill="#35495E"/>
<path fill-rule="evenodd" clip-rule="evenodd" d="M3.03437 5.51731H2.48265C2.33029 5.51731 2.20679 5.3938 2.20679 5.24144C2.20679 5.08909 2.33029 4.96558 2.48265 4.96558H3.03437C3.18672 4.96558 3.31023 5.08909 3.31023 5.24144C3.31023 5.3938 3.18672 5.51731 3.03437 5.51731Z" fill="#35495E"/>
<path fill-rule="evenodd" clip-rule="evenodd" d="M5.24137 5.51731H4.13792C3.98557 5.51731 3.86206 5.3938 3.86206 5.24144C3.86206 5.08909 3.98557 4.96558 4.13792 4.96558H5.24137C5.39373 4.96558 5.51723 5.08909 5.51723 5.24144C5.51723 5.3938 5.39373 5.51731 5.24137 5.51731Z" fill="#35495E"/>
<path fill-rule="evenodd" clip-rule="evenodd" d="M5.24127 7.17234H2.48265C2.33029 7.17234 2.20679 7.04883 2.20679 6.89647C2.20679 6.74411 2.33029 6.62061 2.48265 6.62061H5.24127C5.39362 6.62061 5.51713 6.74411 5.51713 6.89647C5.51713 7.04883 5.39362 7.17234 5.24127 7.17234Z" fill="#35495E"/>
<path fill-rule="evenodd" clip-rule="evenodd" d="M5.24127 10.4826H2.48265C2.33029 10.4826 2.20679 10.3591 2.20679 10.2068C2.20679 10.0544 2.33029 9.93091 2.48265 9.93091H5.24127C5.39362 9.93091 5.51713 10.0544 5.51713 10.2068C5.51713 10.3591 5.39362 10.4826 5.24127 10.4826Z" fill="#35495E"/>
<path fill-rule="evenodd" clip-rule="evenodd" d="M3.03437 8.82759H2.48265C2.33029 8.82759 2.20679 8.70409 2.20679 8.55174C2.20679 8.39938 2.33029 8.27588 2.48265 8.27588H3.03437C3.18672 8.27588 3.31023 8.39938 3.31023 8.55174C3.31023 8.70409 3.18672 8.82759 3.03437 8.82759Z" fill="#35495E"/>
<path fill-rule="evenodd" clip-rule="evenodd" d="M5.24137 8.82759H4.13792C3.98557 8.82759 3.86206 8.70409 3.86206 8.55174C3.86206 8.39938 3.98557 8.27588 4.13792 8.27588H5.24137C5.39373 8.27588 5.51723 8.39938 5.51723 8.55174C5.51723 8.70409 5.39373 8.82759 5.24137 8.82759Z" fill="#35495E"/>
</svg>
