<svg width="16" height="16" viewBox="0 0 16 16" fill="none" xmlns="http://www.w3.org/2000/svg">
<path d="M16.0001 7.13295C16.0001 7.01023 15.8685 6.93248 15.761 6.99167L12.6258 8.71783L12.3354 9.86308L12.6258 11.0102L14.3129 12.2294L16.0001 12.8679V7.13295Z" fill="#454D58"/>
<path d="M12.6258 11.5906L15.761 13.3168C15.8685 13.376 16.0001 13.2982 16.0001 13.1755V12.8678L12.6258 11.01L12.3354 11.327L12.6258 11.5906Z" fill="#3C434C"/>
<path d="M1.21406 8.01078L0.230344 7.54478C0.123344 7.49409 0 7.57212 0 7.69053V9.85731L0.607031 9.86006L1.21406 9.28218L1.50437 8.69456L1.21406 8.01078Z" fill="#A6AEC4"/>
<path d="M0.230344 10.3289L1.21406 9.86285L1.50437 9.57254L1.21406 9.28223L0 9.85735V10.1831C0 10.3015 0.123344 10.3796 0.230344 10.3289Z" fill="#959DB0"/>
<path d="M2.49555 9.28239L1.85483 9.5727L1.21411 9.28239V8.01099H2.49555L2.78589 8.69477L2.49555 9.28239Z" fill="#454D58"/>
<path d="M1.21411 9.86288H2.49555L2.78589 9.57254L2.49555 9.28223H1.21411V9.86288Z" fill="#3C434C"/>
<path d="M9.47501 6.56959C10.9372 6.56959 12.2852 5.15599 12.2852 3.74462C12.1399 2.3208 10.9372 1.20996 9.47501 1.20996C8.01283 1.20996 6.81014 2.32084 6.66479 3.74462C6.66476 5.21937 8.01283 6.56959 9.47501 6.56959Z" fill="#454D58"/>
<path d="M4.74588 6.56968C6.01979 6.56968 6.70442 5.50977 6.70442 4.58974C6.56395 3.63393 5.7407 2.90015 4.74588 2.90015C3.75104 2.90015 2.92782 3.63393 2.78735 4.58974C2.78732 5.59868 3.50973 6.56968 4.74588 6.56968Z" fill="#454D58"/>
<path d="M3.36545 14.4999H11.7559C12.4837 14.4999 12.6258 13.8201 12.6258 13.3397V7.72971C12.6258 7.2493 12.2363 6.85986 11.7559 6.85986H3.36545C2.88504 6.85986 2.49561 7.2493 2.49561 7.72971V13.3397C2.49561 13.8201 2.71695 14.4999 3.36545 14.4999Z" fill="#A6AEC4"/>
<path d="M5.29476 11.4883H9.82667C10.1493 11.4883 10.1493 11.0536 10.1493 10.8754V8.8167C10.1493 8.63855 10.0048 8.49414 9.82667 8.49414H5.29476C5.11661 8.49414 4.97217 8.63858 4.97217 8.8167V10.8754C4.97217 11.0536 4.97217 11.4883 5.29476 11.4883Z" fill="#BED8FB"/>
<path d="M9.47507 4.73614C10.2071 4.73614 10.4233 4.17011 10.4233 3.74464C10.2992 3.33874 9.92163 3.04346 9.47507 3.04346C9.02851 3.04346 8.65101 3.33871 8.52686 3.74464C8.52686 4.18402 8.77404 4.73614 9.47507 4.73614Z" fill="#A6AEC4"/>
<path d="M4.1875 4.58965C4.1875 4.83487 4.27153 5.21937 4.74594 5.21937C5.25497 5.21937 5.30441 4.80299 5.30441 4.58965C5.19941 4.38809 4.98894 4.25024 4.74594 4.25024C4.50297 4.25024 4.2925 4.38812 4.1875 4.58965Z" fill="#A6AEC4"/>
<path d="M11.7559 14.2097H3.36545C2.88504 14.2097 2.49561 13.8203 2.49561 13.3398V13.9205C2.49561 14.4009 2.88504 14.7903 3.36545 14.7903H11.7559C12.2363 14.7903 12.6258 14.4009 12.6258 13.9205V13.3398C12.6258 13.8203 12.2363 14.2097 11.7559 14.2097Z" fill="#959DB0"/>
<path d="M9.82661 11.1981H5.29473C5.11657 11.1981 4.97217 11.0537 4.97217 10.8755V11.4561C4.97217 11.6343 5.11661 11.7787 5.29473 11.7787H9.82664C10.0048 11.7787 10.1492 11.6343 10.1492 11.4561V10.8755C10.1492 11.0537 10.0048 11.1981 9.82661 11.1981Z" fill="#A3CAF7"/>
<path d="M4.74581 6.27919C3.75096 6.27919 2.92774 5.54541 2.78728 4.5896C2.77334 4.68438 2.76587 4.78126 2.76587 4.87991C2.76587 5.97341 3.65231 6.85985 4.74581 6.85985C5.83927 6.85985 6.72574 5.97341 6.72574 4.87991C6.72574 4.78126 6.71827 4.68438 6.70437 4.5896C6.56384 5.54538 5.74062 6.27919 4.74581 6.27919Z" fill="#3C434C"/>
<path d="M4.74593 4.92897C4.50296 4.92897 4.29249 4.79113 4.18749 4.5896C4.14221 4.67654 4.11621 4.77513 4.11621 4.87991C4.11621 5.22769 4.39815 5.50963 4.74593 5.50963C5.09371 5.50963 5.37565 5.22769 5.37565 4.87991C5.37565 4.7751 5.34968 4.67651 5.3044 4.5896C5.19937 4.79113 4.9889 4.92897 4.74593 4.92897Z" fill="#959DB0"/>
<path d="M9.47511 6.27929C8.01293 6.27929 6.81024 5.16841 6.6649 3.74463C6.65515 3.84007 6.65015 3.93691 6.65015 4.03494C6.65015 5.59513 7.91493 6.85994 9.47514 6.85994C11.0354 6.85994 12.3001 5.59516 12.3001 4.03494C12.3001 3.93691 12.2951 3.84007 12.2854 3.74463C12.14 5.16841 10.9373 6.27929 9.47511 6.27929Z" fill="#3C434C"/>
<path d="M9.47514 4.44581C9.02858 4.44581 8.65108 4.15057 8.52692 3.74463C8.49883 3.83647 8.48364 3.93391 8.48364 4.03494C8.48364 4.58253 8.92755 5.02644 9.47514 5.02644C10.0227 5.02644 10.4666 4.58253 10.4666 4.03494C10.4666 3.93391 10.4514 3.83644 10.4234 3.74463C10.2992 4.15057 9.92171 4.44581 9.47514 4.44581Z" fill="#959DB0"/>
<path d="M8.86374 12.8711C8.72987 12.8711 8.62134 12.9796 8.62134 13.1135C8.62134 13.2474 8.72987 13.3559 8.86374 13.3559H9.46844C9.60231 13.3559 9.71084 13.2474 9.71084 13.1135C9.71084 12.9796 9.60231 12.8711 9.46844 12.8711H8.86374Z" fill="#B3E59F"/>
<path d="M7.2573 12.8711C7.12342 12.8711 7.01489 12.9796 7.01489 13.1135C7.01489 13.2474 7.12342 13.3559 7.2573 13.3559H7.86201C7.99589 13.3559 8.10442 13.2474 8.10442 13.1135C8.10442 12.9796 7.99589 12.8711 7.86201 12.8711H7.2573Z" fill="#DF667C"/>
<path d="M5.65085 12.8711C5.51698 12.8711 5.40845 12.9796 5.40845 13.1135C5.40845 13.2474 5.51698 13.3559 5.65085 13.3559H6.25554C6.38942 13.3559 6.49795 13.2474 6.49795 13.1135C6.49795 12.9796 6.38942 12.8711 6.25554 12.8711H5.65085Z" fill="#EACC73"/>
</svg>
