<svg width="14" height="14" viewBox="0 0 14 14" fill="none" xmlns="http://www.w3.org/2000/svg">
<g opacity="0.3">
<path d="M7 14C10.866 14 14 10.866 14 7C14 3.13401 10.866 0 7 0C3.13401 0 0 3.13401 0 7C0 10.866 3.13401 14 7 14Z" fill="#FFD54F"/>
<path d="M4.08341 6.41659C4.72774 6.41659 5.25007 5.89426 5.25007 5.24992C5.25007 4.60559 4.72774 4.08325 4.08341 4.08325C3.43908 4.08325 2.91675 4.60559 2.91675 5.24992C2.91675 5.89426 3.43908 6.41659 4.08341 6.41659Z" fill="#6D4C41"/>
<path d="M9.91666 6.41659C10.561 6.41659 11.0833 5.89426 11.0833 5.24992C11.0833 4.60559 10.561 4.08325 9.91666 4.08325C9.27233 4.08325 8.75 4.60559 8.75 5.24992C8.75 5.89426 9.27233 6.41659 9.91666 6.41659Z" fill="#6D4C41"/>
<path d="M7.00012 12.2499C4.64521 12.2499 2.55454 10.8114 1.91579 8.75104C1.84404 8.52004 1.97354 8.27504 2.20396 8.20388C2.43496 8.13213 2.67996 8.26163 2.75112 8.49204C3.27787 10.1895 5.02496 11.3749 7.00012 11.3749C8.97529 11.3749 10.7224 10.1895 11.2491 8.49204C11.3209 8.26163 11.5665 8.13271 11.7963 8.20388C12.0273 8.27563 12.1562 8.52063 12.0845 8.75104C11.4457 10.8114 9.35504 12.2499 7.00012 12.2499Z" fill="#6D4C41"/>
</g>
</svg>
