<svg width="14" height="14" viewBox="0 0 14 14" fill="none" xmlns="http://www.w3.org/2000/svg">
<path d="M7 14C10.866 14 14 10.866 14 7C14 3.13401 10.866 0 7 0C3.13401 0 0 3.13401 0 7C0 10.866 3.13401 14 7 14Z" fill="#FFD54F"/>
<path d="M4.08317 6.41659C4.7275 6.41659 5.24983 5.89426 5.24983 5.24992C5.24983 4.60559 4.7275 4.08325 4.08317 4.08325C3.43884 4.08325 2.9165 4.60559 2.9165 5.24992C2.9165 5.89426 3.43884 6.41659 4.08317 6.41659Z" fill="#6D4C41"/>
<path d="M9.91666 6.41659C10.561 6.41659 11.0833 5.89426 11.0833 5.24992C11.0833 4.60559 10.561 4.08325 9.91666 4.08325C9.27233 4.08325 8.75 4.60559 8.75 5.24992C8.75 5.89426 9.27233 6.41659 9.91666 6.41659Z" fill="#6D4C41"/>
<path d="M6.99988 12.2499C4.64496 12.2499 2.5543 10.8114 1.91555 8.75104C1.8438 8.52004 1.9733 8.27504 2.20371 8.20388C2.43471 8.13213 2.67971 8.26163 2.75088 8.49204C3.27763 10.1895 5.02471 11.3749 6.99988 11.3749C8.97505 11.3749 10.7221 10.1895 11.2489 8.49204C11.3206 8.26163 11.5662 8.13271 11.796 8.20388C12.027 8.27563 12.156 8.52063 12.0842 8.75104C11.4455 10.8114 9.3548 12.2499 6.99988 12.2499Z" fill="#6D4C41"/>
</svg>
