<svg width="16" height="16" viewBox="0 0 16 16" fill="none" xmlns="http://www.w3.org/2000/svg">
<g clip-path="url(#clip0)">
<path d="M15.6225 5.88306L10.44 5.4024L8.3814 0.622132C8.23727 0.287414 7.76268 0.287414 7.61856 0.622132L5.55997 5.40244L0.377508 5.88306C0.0146338 5.91672 -0.132022 6.36806 0.141759 6.60856L4.05194 10.0436L2.90763 15.121C2.8275 15.4765 3.21144 15.7554 3.52478 15.5694L7.99999 12.912L12.4752 15.5694C12.7885 15.7554 13.1725 15.4765 13.0924 15.121L11.948 10.0436L15.8582 6.60856C16.132 6.36806 15.9854 5.91672 15.6225 5.88306Z" fill="#FFDC64"/>
<path d="M8.3814 0.622132C8.23727 0.287414 7.76268 0.287414 7.61856 0.622132L5.55997 5.40244L0.377508 5.88306C0.0146338 5.91672 -0.132022 6.36806 0.141759 6.60856L4.05194 10.0436L2.90763 15.121C2.8275 15.4765 3.21144 15.7554 3.52478 15.5694L4.52363 14.9763C4.66188 9.28562 7.30593 5.27822 9.3993 2.98575L8.3814 0.622132Z" fill="#FFC850"/>
</g>
<defs>
<clipPath id="clip0">
<rect width="16" height="16" fill="white"/>
</clipPath>
</defs>
</svg>
